<svg xmlns="http://www.w3.org/2000/svg" width="4649" height="2480" viewBox="0 0 4649 2480">
  <g id="back2" transform="translate(-12883 -7388)">
    <g id="back" transform="translate(12883 7388)" fill="#8b0000" stroke="red" stroke-width="1">
      <rect width="4649" height="2480" stroke="none"/>
      <rect x="0.5" y="0.5" width="4648" height="2479" fill="none"/>
    </g>
    <g id="Group_1" data-name="Group 1" transform="translate(1306 184)">
      <circle id="Ellipse_2" data-name="Ellipse 2" cx="30.997" cy="30.997" r="30.997" transform="translate(13601.026 8170.134)" fill="#2f2e41"/>
      <path id="Path_1" data-name="Path 1" d="M235.615,580.545,254.659,514.5l6.483,2.026s-7.7,49.433-19.854,61.994Z" transform="translate(13302 7993.763)" fill="#2f2e41"/>
      <path id="Path_2" data-name="Path 2" d="M308.143,226.007s2.431,25.932-3.241,33.225,3.647,21.475,3.647,21.475l17.018,20.259,25.121-11.345,3.647-21.07L351.9,253.965s-8.509-8.509-4.862-23.906S308.143,226.007,308.143,226.007Z" transform="translate(13302 7993.763)" fill="#ffb9b9"/>
      <path id="Path_3" data-name="Path 3" d="M308.143,226.007s2.431,25.932-3.241,33.225,3.647,21.475,3.647,21.475l17.018,20.259,25.121-11.345,3.647-21.07L351.9,253.965s-8.509-8.509-4.862-23.906S308.143,226.007,308.143,226.007Z" transform="translate(13302 7993.763)" opacity="0.1"/>
      <path id="Path_4" data-name="Path 4" d="M166.73,579.778V596.39l22.285,4.457-2.026-27.552Z" transform="translate(13458 8125)" fill="#ffb9b9"/>
      <path id="Path_5" data-name="Path 5" d="M233.586,573.295l-4.863,23.1,9.725,6.888,17.018-12.56-2.026-19.855Z" transform="translate(13458 8125)" fill="#ffb9b9"/>
      <path id="Path_6" data-name="Path 6" d="M347.041,730.058s-8.509-14.383-24.311-5.368c0,0-2.836,15.9-5.673,17.118s-18.639,24.311,0,26.337,27.958-4.052,27.958-4.052-3.647,3.138,2.026,1.517,3.241-10.535,3.241-10.535Z" transform="translate(13302 7993.763)" fill="#2f2e41"/>
      <path id="Path_7" data-name="Path 7" d="M402.551,720.334s-12.561,8.914-14.587,4.862-5.267-3.647-5.267-3.647-11.345,42.768-4.052,44.794a24.583,24.583,0,0,0,14.182-.733s9.724-6.81,9.724-1.543,27.147,4.888,38.493,4.483,5.267-8.914,5.267-8.914L431.32,745.05,414.3,720.334S406.6,713.446,402.551,720.334Z" transform="translate(13302 7993.763)" fill="#2f2e41"/>
      <path id="Path_8" data-name="Path 8" d="M283.022,449.264l17.018,163.29s9.319,99.676,10.94,101.3,12.156,6.888,35.251,0l-5.267-130.47,9.724-81.037,22.285,55.916s5.267,150.324,8.914,150.324,25.932,7.293,31.2-1.621,4.457-104.943,4.457-104.943-2.431-151.54-20.259-156.4S283.022,449.264,283.022,449.264Z" transform="translate(13302 7993.763)" fill="#2f2e41"/>
      <circle id="Ellipse_3" data-name="Ellipse 3" cx="27.958" cy="27.958" r="27.958" transform="translate(13604.065 8178.846)" fill="#ffb9b9"/>
      <path id="Path_9" data-name="Path 9" d="M331.644,290.836s-2.836-17.423-2.836-20.664-12.561-5.267-12.561-5.267-9.724-10.94-11.75-9.319-32.82,22.285-37.682,25.121-10.13,14.992-9.724,15.8,25.527,53.485,25.527,53.485,10.94,32.415,3.241,49.433-17.423,50.648-3.241,57.536,83.063,21.88,95.624,8.914,21.475-16.613,24.716-16.613-13.371-56.321-9.724-61.588-1.621-38.087-1.621-38.087l18.639-52.269s-1.621-29.173-38.493-35.656L349.7,250.968Z" transform="translate(13302 7993.763)" fill="#575a89"/>
      <path id="Path_10" data-name="Path 10" d="M255.874,456.558s-2.026,19.449-2.026,25.121-9.724,38.9,4.457,42.95,12.966-44.165,12.966-44.165V455.747Z" transform="translate(13302 7993.763)" fill="#ffb9b9"/>
      <path id="Path_11" data-name="Path 11" d="M424.026,438.324s2.431,18.639,1.216,22.69,11.75,39.3-5.673,41.329S406.6,460.2,406.6,460.2V438.32Z" transform="translate(13302 7993.763)" fill="#ffb9b9"/>
      <path id="Path_12" data-name="Path 12" d="M252.227,574.062l11.75-62.4h3.647a24.543,24.543,0,0,1,3.647,23.5c-4.862,13.776-8.914,38.9-8.914,38.9Z" transform="translate(13302 7993.763)" fill="#2f2e41"/>
      <path id="Path_13" data-name="Path 13" d="M263.167,291.647l-6.078,4.862s-8.1,128.849-6.078,138.574-7.293,23.5.81,24.716,17.828,6.483,22.285,3.241,5.267-14.992,6.888-17.828,4.457-36.467,4.457-36.467,8.509-33.63,3.241-58.752-10.13-50.648-10.13-50.648Z" transform="translate(13302 7993.763)" fill="#575a89"/>
      <path id="Path_14" data-name="Path 14" d="M391.611,281.517l18.639,15.8,14.181,82.658s8.914,64.425,2.026,65.235-17.423-1.216-21.88,0-8.1-2.026-8.1-2.026-4.862-25.932-4.862-26.337-3.241-29.983-3.241-29.983l-4.052-33.225,6.078-36.467Z" transform="translate(13302 7993.763)" fill="#575a89"/>
      <path id="Path_15" data-name="Path 15" d="M303.686,664.013s-2.634,7.565-6.264,17.865c-1.686,4.789-3.586,10.174-5.543,15.664-1.26,3.549-2.54,7.143-3.8,10.652-2.01,5.612-3.963,11-5.669,15.628-2.253,6.106-4.08,10.891-5.061,13.124-4.457,10.13-85.9-6.078-92.382-10.13s-8.1-17.828-8.914-37.277c0-.1-.008-.2-.008-.3-.1-3.926.9-9.773,2.569-16.633.835-3.428,1.84-7.107,2.958-10.928,1.5-5.126,3.2-10.5,4.98-15.847,7.642-22.974,16.649-45.43,16.649-45.43s15.8-10.94,21.475-18.233S261.547,569.2,261.547,569.2c8.914.405,29.173,34.846,37.277,45.381S303.686,664.013,303.686,664.013Z" transform="translate(13302 7993.763)" fill="#3f3d56"/>
      <circle id="Ellipse_4" data-name="Ellipse 4" cx="3.647" cy="3.647" r="3.647" transform="translate(13556.658 8588.894)" fill="#2f2e41"/>
      <circle id="Ellipse_5" data-name="Ellipse 5" cx="2.026" cy="2.026" r="2.026" transform="translate(13563.952 8594.567)" fill="#2f2e41"/>
      <path id="Path_16" data-name="Path 16" d="M297.422,681.878c-1.686,4.789-3.586,10.174-5.543,15.664L181.571,661.675c1.5-5.126,3.2-10.5,4.98-15.847Z" transform="translate(13302 7993.763)" fill="#f2f2f2"/>
      <path id="Path_17" data-name="Path 17" d="M288.078,708.194c-2.01,5.612-3.963,11-5.669,15.628L176.044,689.236c-.1-3.926.9-9.773,2.569-16.633Z" transform="translate(13302 7993.763)" fill="#f2f2f2"/>
      <path id="Path_18" data-name="Path 18" d="M258.3,599.588s8.1,35.656,3.241,67.261S273.7,728.032,273.7,728.032" transform="translate(13302 7993.763)" fill="none" stroke="#2f2e41" stroke-miterlimit="10" stroke-width="3"/>
      <path id="Path_19" data-name="Path 19" d="M263.978,602.425s-15.8,57.536-16.207,65.64-6.888,66.045-14.992,72.123" transform="translate(13302 7993.763)" fill="none" stroke="#2f2e41" stroke-miterlimit="10" stroke-width="3"/>
      <path id="Path_20" data-name="Path 20" d="M308.559,195.98s-6.328-16.454,2.848-21.833l2.531,7.278s23.1-13.923,29.111-10.758l-5.7,7.594s26.9,0,28.794,10.442l-9.493.316s10.125,6.645,10.442,17.4l-20.251,1.266,9.809,5.7s-36.7,5.063-45.565-9.493Z" transform="translate(13302 7993.763)" fill="#2f2e41"/>
      <path id="Path_21" data-name="Path 21" d="M303.078,196.631s7.293,14.587,17.018,10.94,0-17.018,0-17.018l-6.483-3.241Z" transform="translate(13302 7993.763)" fill="#2f2e41"/>
      <path id="Path_22" data-name="Path 22" d="M932,426.751,799.75,261.487a44.4,44.4,0,0,1-21.388,10.8c-24.9,4.9-49.212-12.1-54.308-37.975a47.966,47.966,0,0,1,16.558-46.724l-45.094-56.35L438.615,350.8,675.1,646.314Z" transform="translate(13302 7993.763)" fill="#f16d6d"/>
      <circle id="Ellipse_6" data-name="Ellipse 6" cx="37.284" cy="37.284" r="37.284" transform="translate(14032.39 8183.631)" fill="#f84444"/>
      <rect id="Rectangle_1" data-name="Rectangle 1" width="17.448" height="50.793" transform="matrix(0.654, -0.757, 0.757, 0.654, 13824.977, 8400.245)" fill="#fff"/>
      <rect id="Rectangle_2" data-name="Rectangle 2" width="17.448" height="45.023" transform="matrix(0.654, -0.757, 0.757, 0.654, 14072.039, 8636.344)" fill="#fff"/>
      <path id="Path_23" data-name="Path 23" d="M843,531.047v1.024q-.035,3.856-.221,7.677a170.99,170.99,0,0,1-341.411,2.233q-.349-5.426-.349-10.934A170.143,170.143,0,0,1,532.46,432.21q2.46-3.49,5.118-6.851c1.221-1.559,2.478-3.083,3.746-4.6a171.023,171.023,0,0,1,238.293-22.613c2.059,1.663,4.083,3.385,6.06,5.141q2.373,2.111,4.664,4.315A170.528,170.528,0,0,1,842.407,516.67Q843,523.789,843,531.047Z" transform="translate(13302 7993.763)" fill="#3f3d56"/>
      <path id="Path_24" data-name="Path 24" d="M672.01,723.557c-106.15,0-192.51-86.36-192.51-192.51a191.88,191.88,0,0,1,51.366-130.915l4.263,3.957a186.079,186.079,0,0,0-49.813,126.958c0,102.943,83.75,186.694,186.694,186.694a185.217,185.217,0,0,0,134.026-56.725l4.176,4.048a190.987,190.987,0,0,1-138.2,58.493Z" transform="translate(13302 7993.763)" fill="#fff"/>
      <rect id="Rectangle_3" data-name="Rectangle 3" width="48.854" height="48.854" transform="translate(13953.072 8713.249)" fill="#fff"/>
      <path id="Path_25" data-name="Path 25" d="M537.579,425.359a.95.95,0,0,1,.233.14c.919.756-.233,2.21-.093,3.408.163,1.535,2.21,1.873,3.757,2.024s3.5,1.407,2.768,2.78c-3.885,1.338-7.817.023-11.783-1.5a170.144,170.144,0,0,0-31.441,98.837q0,5.514.349,10.934a4.419,4.419,0,0,0,1.059.57c1.163.442,2.513.361,3.583.989.849.5,1.419,1.384,2.268,1.849,2.431,1.326,5.8-1.221,8.073.361a20.846,20.846,0,0,1,1.663,1.7c2.094,1.815,5.537.593,7.956,1.954,1.559.872,2.361,2.617,3.2,4.2,2.082,3.955,5.455,7.84,9.91,8.154a26.676,26.676,0,0,1,4.211.14c1.373.314,2.722,1.512,2.5,2.9-.384,2.385.791,4.99.477,7.375-.57,4.362-6.747,6.27-7.27,10.632a26.271,26.271,0,0,1-.163,2.873c-.279,1.14-1.14,2.07-1.442,3.21-.582,2.152.965,4.3,2.652,5.746s3.722,2.71,4.653,4.734c.977,2.152.5,4.653.814,6.991.7,5.106,5.106,8.887,9.643,11.33a10.068,10.068,0,0,1,3.769,2.745c1.163,1.687,1.047,3.908,1.442,5.921.954,4.92,5.095,8.98,5.211,13.993.081,3.571-1.9,6.8-3.082,10.166a23.464,23.464,0,0,0-1.059,10.981,171.813,171.813,0,0,0,21.089,15.3,6.147,6.147,0,0,0,.872-1.954,3.865,3.865,0,0,0-1.8-4,9.563,9.563,0,0,0,3.338-2.14,3.275,3.275,0,0,0,.6-3.7c2.047.256,4.478.384,5.828-1.186,1.082-1.256,1.012-3.141.582-4.734a19.526,19.526,0,0,1-1.163-4.816A86.628,86.628,0,0,0,605,653.777a9.228,9.228,0,0,0-4.327-5.42c2.14-.361,4.083-2.92,4.758-4.979a12.68,12.68,0,0,0,.093-6.432,3.42,3.42,0,0,1-.07-1.675,3.3,3.3,0,0,1,1.7-1.64q5.3-3.053,10.608-6.1a6.4,6.4,0,0,0,1.7-1.245c1.1-1.314.942-3.28.372-4.9s-1.477-3.141-1.7-4.839c-.651-5.083,4.792-8.736,6.63-13.528a20.32,20.32,0,0,0,1-5.921c.151-2.164.163-4.664-1.489-6.049-1.594-1.338-4.071-1.035-5.735-2.28-1.524-1.14-2.047-3.338-3.711-4.257-1.512-.838-3.4-.3-5.083-.7-2.955-.686-4.816-4.094-7.84-4.409-1.7-.186-3.629.651-5.025-.337-1.233-.884-1.28-2.64-1.512-4.129a11.535,11.535,0,0,0-9.306-9.329c-1.756-.279-3.664-.174-5.165-1.14s-2.2-2.8-3.4-4.164c-1.908-2.175-4.932-2.955-7.759-3.618q-5.758-1.344-11.5-2.7c-2.036-.489-4.664-.744-5.769,1.047a7.868,7.868,0,0,0-.675,2.152,6.673,6.673,0,0,1-6.258,4.7,7.4,7.4,0,0,0-4.35-3.373,27.444,27.444,0,0,1-3.536-.838,4.954,4.954,0,0,1-2.14-6.875,6.172,6.172,0,0,0-1.059-7.41c-1.954-1.756-4.781-2.187-7.41-2.012-.686-1.5.465-3.187,1.7-4.281s2.745-2.152,3.013-3.78c.43-2.559-2.838-4.5-5.316-3.745s-4.06,3.176-5.106,5.548a16.736,16.736,0,0,1-2.059,3.943,4.042,4.042,0,0,1-3.908,1.6c-2.047-.523-2.827-2.955-3.28-5a32.611,32.611,0,0,1-1.093-8.387,10.948,10.948,0,0,1,3.164-7.631c3.385-3.117,8.6-2.815,13.167-2.315a3.354,3.354,0,0,1,.349-4.42,5.026,5.026,0,0,1,4.56-1.117,6.256,6.256,0,0,1,3.524,2.1c1.3,1.582,1.675,3.734,2.652,5.525s3.2,3.338,5,2.373c1.57-.838,1.815-3,1.431-4.734s-1.221-3.408-1.082-5.176c.268-3.362,3.769-5.4,6.851-6.781s6.607-3.257,7.1-6.607a6.173,6.173,0,0,1,.372-1.908,3.73,3.73,0,0,1,1.384-1.3c8.992-5.944,18.146-11.969,28.429-15.215.535-.174.593.012,1.14-.116.768-.442.256-1.663-.477-2.152s-1.71-.872-1.9-1.733c-.128-.628.244-1.256.337-1.9a2.367,2.367,0,0,0-3.106-2.4c-.826-1.093.8-2.361,2.129-2.734a58.14,58.14,0,0,1,12.155-1.977,2.164,2.164,0,0,1,1.384.233,1.645,1.645,0,0,1,.1,2.257,12.744,12.744,0,0,1-1.849,1.687,5.081,5.081,0,0,0-1.326,5.107c2.152,1.093,4.478,2.222,6.863,1.838s4.478-3.059,3.362-5.188c-1.035-1.989-4.164-2.443-4.7-4.618-.628-2.547,2.978-4.816,2.164-7.3-.349-1.093-1.442-1.745-2.28-2.524a6.882,6.882,0,0,1-1.5-7.607,8.667,8.667,0,0,1-7.584-2.373c-1.815-1.826-3.257-4.723-5.839-4.63-2.361.07-4.4,2.827-6.607,1.989-.547-.209-1.117-.628-1.64-.384a1.356,1.356,0,0,0-.617,1.012c-.558,2.687.407,5.746-1.059,8.073-1.594,2.524-5.281,2.873-7.212,5.153-1.047,1.233-1.454,2.9-2.419,4.2s-3,2.14-4.164,1a5.732,5.732,0,0,0-1.559-6.979,14.988,14.988,0,0,0-3.443-1.675,20.434,20.434,0,0,1-3.85-2.14,3.815,3.815,0,0,1-1.407-1.512,3.477,3.477,0,0,1,.093-2.4,9.794,9.794,0,0,1,7.782-6.444c1.535-.209,3.327-.14,4.35-1.314.535-.616.814-1.559,1.6-1.8a2.34,2.34,0,0,1,1.477.174l5.746,2.024a3.936,3.936,0,0,0,2.047.337,1.377,1.377,0,0,0,1.2-1.454c-.186-.954-1.652-1.408-1.512-2.373a1.509,1.509,0,0,1,.477-.814,20.554,20.554,0,0,1,16.3-6.433c.721,1.2-.419,2.606-1.384,3.618s-1.722,2.838-.558,3.618a3.063,3.063,0,0,0,1.524.349,13.291,13.291,0,0,1,4.071,1.233c1.989.861,3.943,1.815,5.851,2.838a7.375,7.375,0,0,1,.14-3.769,2.559,2.559,0,0,1,3.024-1.64c1.14.442,1.722,1.954,2.943,2.094,1.617.186,2.257-2.21,1.582-3.7s-2.024-2.722-2.129-4.362c-.081-1.093.337-2.454-.535-3.117a2.314,2.314,0,0,0-1.035-.372q-10.957-2.007-21.926-4.025c-1.3-.244-3.176-.058-3.234,1.256-.035.744.628,1.477.337,2.152-.314.721-1.338.663-2.082.919a2.827,2.827,0,0,0-1.628,2.989,8.149,8.149,0,0,0,1.373,3.362c-1.431-.593-3.583-.7-5.013-1.3a19.3,19.3,0,0,0-1.256-4.827,1.7,1.7,0,0,0-2.222-1.373c-1.884.291-3.769.57-5.653.861a2.187,2.187,0,0,0-1.291.5c-.733.779-.012,2.024-.035,3.094a2.9,2.9,0,0,1-2.245,2.5,8.463,8.463,0,0,1-3.583-.047l-7.91-1.221a12.959,12.959,0,0,0,5.979-4c1.047-1.233,1.6-3.536.093-4.118a3.608,3.608,0,0,0-1.372-.1c-3.583.023-6.409-2.966-9.759-4.234a9.593,9.593,0,0,0-3.292-.6Z" transform="translate(13302 7993.763)" fill="#18e13a"/>
      <path id="Path_26" data-name="Path 26" d="M842.779,539.748a4.2,4.2,0,0,1-3.559,1.687c-3.641-.314-5.176-5.56-8.782-6.153a1.4,1.4,0,0,0-.954.093c-.535.291-.628,1.012-.663,1.617-.151,3-.279,6.118.9,8.887,1.71,4.048,6.142,7.444,5.211,11.737-5-2.315-7.607-7.933-8.782-13.319s-1.373-11.039-3.49-16.134c-1.617,2.059-4.99.361-6.456-1.8-1.4-2.047-2.257-4.42-3.606-6.5s-3.42-3.932-5.886-4.048c-2.594-.116-4.851,1.663-6.828,3.35a15.8,15.8,0,0,0-4.246,4.723c-1.384,2.792-1.024,6.072-1.093,9.178-.07,3.35-.779,6.9-3.071,9.364s-6.514,3.315-9.038,1.093a10.2,10.2,0,0,1-2.524-4.548,221.307,221.307,0,0,1-6.84-24.4c-.419,1.884-2.082,4.315-3.664,3.21a3.265,3.265,0,0,1-.838-1.093c-2.955-4.99-8.41-7.991-13.935-9.794s-11.318-2.629-16.773-4.606a42.89,42.89,0,0,1-8.712-4.339,6.861,6.861,0,0,0-.419,7,5.609,5.609,0,0,0,6.3,2.641c1.21-.4,2.233-1.233,3.431-1.652s2.815-.209,3.338.954c.512,1.105-.256,2.443.128,3.606.57,1.756,3.234,1.9,4.164,3.5a3.241,3.241,0,0,1-.872,3.745,15.675,15.675,0,0,1-3.513,2.164c-3.908,2.175-6.688,5.886-10.108,8.771s-8.247,5-12.318,3.152c.965-4.92-4.885-8.526-5.967-13.423-.361-1.617-.174-3.327-.675-4.9-.733-2.28-2.757-3.839-4.409-5.56a21.855,21.855,0,0,1-5.991-15.878c.093-2.024.465-4.083,0-6.06s-2.094-3.873-4.118-3.792c-4.618.209-10.445.558-12.865-3.385-.872-1.407-1.245-3.466.012-4.548a4.392,4.392,0,0,1,3.338-.57c3.478.337,6.944.686,10.422,1.024,2.431.233,5.06.43,7.154-.837s3-4.653,1.059-6.153c-1.407-1.093-3.943-1.035-4.362-2.768-.337-1.454,1.268-3.094.4-4.315-.617-.861-2.012-.628-2.861.023a18.7,18.7,0,0,1-2.408,2.105c-1.663.861-3.641.035-5.432-.523s-4.187-.6-5.048,1.059c-.977,1.849.849,4.292-.1,6.153-1.28,2.454-5.583,1.059-7.375,3.176-2.047,2.419,1.4,6.049.71,9.143a5.7,5.7,0,0,1-5.618-.314,5.439,5.439,0,0,1-2.35-5.072c.163-1.4.9-2.827.407-4.141a4.834,4.834,0,0,0-2.454-2.245q-5.06-2.809-10.12-5.6c-.942,1.745.244,3.9,1.733,5.211s3.338,2.292,4.315,4.013a5.274,5.274,0,0,1-1.977,6.956,1.227,1.227,0,0,1-1.012.174,1.4,1.4,0,0,1-.651-.872c-1.78-4.571-4.467-9.073-8.747-11.457s-10.445-1.9-13.26,2.117c-.663.954-1.117,2.047-1.7,3.059-3.082,5.362-9.713,7.9-15.9,7.735a3.064,3.064,0,0,1-1.733-.407c-1-.686-.954-2.152-.8-3.362.221-1.71.43-3.408.651-5.118a4.1,4.1,0,0,1,1.128-2.8c1.152-.907,2.8-.337,4.269-.361a5.377,5.377,0,0,0,4.9-3.78,6.077,6.077,0,0,0-1.7-6.049c-.663-.628-1.559-1.419-1.21-2.268a1.885,1.885,0,0,1,1.314-.884c2.617-.756,5.4-.954,7.968-1.861s5.083-2.734,5.7-5.4c.186-.814.268-1.8,1-2.21a3.238,3.238,0,0,1,1.163-.233,5.661,5.661,0,0,0,4.851-5.9c1.233-.861,2.966-.221,4.164.7s2.245,2.129,3.7,2.524c2.71.744,5.327-1.663,8.142-1.675,1.186,0,2.408.419,3.513.012,1.128-.407,1.8-1.524,2.664-2.35s2.385-1.338,3.187-.442c-.233-1.687-.454-3.362-.686-5.037A9.9,9.9,0,0,0,683.665,433l-8.782-2.966a1.9,1.9,0,0,1-.826-.442c-.64-.686,0-1.756.512-2.536,1.245-1.873,1.454-4.955-.593-5.886-1.4-.64-2.989.128-4.327.872-2.14,1.186-4.281,2.385-6.421,3.571-.2,1.221,1.291,1.919,2.21,2.734a3.706,3.706,0,0,1-2.419,6.479,4.643,4.643,0,0,1,.826,3.92l-4.315.314a1.853,1.853,0,0,1-1.4-.279c-.465-.407-.4-1.128-.512-1.733a3.744,3.744,0,0,0-3.164-2.757,10.923,10.923,0,0,0-4.409.407,2.686,2.686,0,0,1-1.908-.047,1.9,1.9,0,0,1-.745-.954,4.864,4.864,0,0,1,.977-4.676,26.773,26.773,0,0,1,3.676-3.385,21.428,21.428,0,0,0,6.386-9.887c2.373-1,4.827-2.35,7.212-3.35a28.8,28.8,0,0,1,5.99-2.012,28.309,28.309,0,0,1,5.874-.279c2.675.047,5.362.093,8.038.151a19.343,19.343,0,0,1,7.037,1.012c2.2.907,4.141,2.873,4.292,5.246a1.611,1.611,0,0,1-.523,1.477,1.885,1.885,0,0,1-1.012.233c-2.222.07-3.164.628-5.386.71,1.407,1.5,2.989,3.082,5.037,3.35,3.606.465,6.2-3.269,7.863-6.514a3.174,3.174,0,0,0,3.315,2.943,6.686,6.686,0,0,0,2.5-.977A49.2,49.2,0,0,1,732,411.715a2.511,2.511,0,0,1,1.919-2.768c1.663-.326,3.152,1.1,3.955,2.594s1.291,3.21,2.571,4.327,3.722,1.059,4.222-.547c.489-1.547-1.128-2.873-2.466-3.792s-2.757-2.594-1.849-3.943c6.84-1.524,13.737-3.036,20.752-3.338a8.83,8.83,0,0,0,3.49-.6,2.712,2.712,0,0,0,1.628-2.873,7.931,7.931,0,0,1-8.259-3.117c7.2-.593,14.738-1.117,21.659.5l6.06,5.141c-1.152,1.2-2.687,2.326-1.849,3.525a2.579,2.579,0,0,0,2.129.733c1.466.023,2.931.058,4.385.058a170.528,170.528,0,0,1,52.065,109.062c-2.443-.093-4.688,3-4.374,5.7.372,3.129,2.629,5.642,4.246,8.34a12.714,12.714,0,0,1,.721,1.361Z" transform="translate(13302 7993.763)" fill="#0eff37"/>
      <line id="Line_1" data-name="Line 1" x2="888" transform="translate(13458 8761.962)" fill="none" stroke="#3f3d56" stroke-miterlimit="10" stroke-width="2"/>
      <circle id="Ellipse_7" data-name="Ellipse 7" cx="14.756" cy="14.756" r="14.756" transform="translate(13809.596 8175.514)" fill="none" stroke="#3f3d56" stroke-miterlimit="10" stroke-width="2"/>
      <circle id="Ellipse_8" data-name="Ellipse 8" cx="14.756" cy="14.756" r="14.756" transform="translate(14245.596 8456.514)" fill="none" stroke="#3f3d56" stroke-miterlimit="10" stroke-width="2"/>
      <circle id="Ellipse_9" data-name="Ellipse 9" cx="14.756" cy="14.756" r="14.756" transform="translate(14144.863 8309.514)" fill="none" stroke="#3f3d56" stroke-miterlimit="10" stroke-width="2"/>
      <circle id="Ellipse_10" data-name="Ellipse 10" cx="16.559" cy="16.559" r="16.559" transform="translate(14046.249 8432.362)" fill="#3f3d56"/>
      <circle id="Ellipse_11" data-name="Ellipse 11" cx="21.828" cy="21.828" r="21.828" transform="translate(14094.171 8373.869)" fill="#fff"/>
      <path id="Path_27" data-name="Path 27" d="M836.074,379.306a30.86,30.86,0,0,0-43.639.54c-11.9,12.2-28.893,73.811-28.893,73.811s61.171-18.512,73.073-30.712a30.86,30.86,0,0,0-.541-43.639Zm-32.061,32.865a14.3,14.3,0,1,1,20.223-.25,14.3,14.3,0,0,1-20.223.25Z" transform="translate(13302 7993.763)" fill="#57b894"/>
    </g>
  </g>
</svg>
