<svg xmlns="http://www.w3.org/2000/svg" width="3800" height="2412" viewBox="0 0 3800 2412"><g transform="translate(-6976 -1780)"><g transform="translate(6976 1780)" fill="#fff" stroke="#fff" stroke-width="1"><rect width="3800" height="2412" stroke="none"/><rect x="0.5" y="0.5" width="3799" height="2411" fill="none"/></g><g transform="translate(-464.72 60)"><path d="M334.1,794.52H299.25S288.36,413.39,334.1,295.78h8.71S312.32,727,334.1,794.52Z" transform="translate(9067.906 2333.833)" fill="#b26b00"/><path d="M318.94,230.322S288.429,289.967,302.5,316.48c0,0,21.124-54.677,45.772-62.962s50.471,62.962,50.471,62.962,14.086-44.734-11.737-81.19c0,0,51.635,19.879,77.458,57.994,0,0,4.7-24.855-56.334-76.215,0,0,53.985,9.943,89.195,33.14,0,0,11.737-18.259-61.033-48.051,0,0,9.387-21.538,65.743-11.6,0,0,0-28.149-89.195-23.2,0,0,0-18.259,58.684-14.911,0,0,0-23.2-68.071-14.911,0,0,14.086-14.911,23.473-18.259,0,0-18.774-1.658-32.861,6.626,0,0,2.349-29.823-32.861-41.424l-4.7,41.478S317.054,93.138,326,99.445c2.35,1.659,9.387,21.538,7.038,31.481,0,0-39.877-23.2-89.195,1.658,0,0,61.033,3.317,70.42,18.259,0,0-51.635-6.626-63.372-1.658,0,0,39.877,9.943,37.56,16.57,0,0-70.42,0-79.754,18.259,0,0,72.77,6.626,77.458,11.6,0,0-84.5,43.083-89.195,54.677,0,0,86.845-36.449,100.931-36.449s-63.372,53.019-58.684,66.279C239.132,280.031,302.5,227.012,318.94,230.322Z" transform="translate(9046.681 2427.52)" fill="#0a7418"/><path d="M35.983,498.74H1.133S-9.757,117.61,35.983,0h8.71S14.2,431.22,35.983,498.74Z" transform="matrix(0.985, 0.174, -0.174, 0.985, 9592.633, 2662.249)" fill="#b26b00"/><path d="M106.991,151.273S80.229,213.14,92.575,240.64c0,0,18.528-56.714,40.147-65.307s44.269,65.307,44.269,65.307,12.355-46.4-10.294-84.214c0,0,45.29,20.62,67.94,60.154,0,0,4.122-25.78-49.412-79.053,0,0,47.351,10.314,78.234,34.374,0,0,10.295-18.939-53.533-49.84,0,0,8.234-22.34,57.664-12.034,0,0,0-29.2-78.234-24.06,0,0,0-18.939,51.472-15.467,0,0,0-24.06-59.706-15.467,0,0,12.355-15.467,20.589-18.939,0,0-16.467-1.72-28.823,6.873,0,0,2.061-30.933-28.823-42.967l-4.122,43.023s-34.608-34.042-26.762-27.5c2.061,1.72,8.234,22.34,6.173,32.654,0,0-34.977-24.06-78.234,1.72,0,0,53.533,3.441,61.767,18.939,0,0-45.29-6.873-55.584-1.72,0,0,34.977,10.314,32.944,17.187,0,0-61.767,0-69.953,18.939,0,0,63.828,6.873,67.94,12.034,0,0-74.113,44.688-78.234,56.714,0,0,76.173-37.806,88.529-37.806s-55.584,54.993-51.472,68.748C36.99,202.834,92.575,147.841,106.991,151.273Z" transform="matrix(0.985, 0.174, -0.174, 0.985, 9506.027, 2629.613)" fill="#0a7418"/><g transform="matrix(0.985, 0.174, -0.174, 0.985, 9253.938, 3015.672)" fill="#7a7676"><path d="M 428.8135375976563 206.7207183837891 C 421.3202819824219 206.7207183837891 411.82177734375 204.9141387939453 398.9209899902344 201.0352478027344 C 387.2839965820313 197.5363006591797 373.9890441894531 192.6810150146484 359.9134826660156 187.5406646728516 C 324.1722412109375 174.4880065917969 279.6911315917969 158.2435455322266 235.8934631347656 154.9627838134766 C 229.9425354003906 154.5170135498047 223.7339477539063 154.2909545898438 217.4402313232422 154.2909545898438 C 181.1517639160156 154.2909545898438 145.3294677734375 161.665771484375 113.7241134643555 168.17236328125 C 101.076171875 170.7762451171875 89.12970733642578 173.2356567382813 78.01976013183594 175.0511322021484 C 65.58629608154297 177.0828399658203 55.90353012084961 178.0291290283203 47.54752731323242 178.0291290283203 C 40.69899749755859 178.0291290283203 34.87635040283203 177.3878936767578 29.74699974060059 176.0687255859375 C 27.06158638000488 175.3780670166016 24.54570579528809 174.4861297607422 22.26923370361328 173.4175415039063 C 19.92394065856934 172.3166656494141 17.75094032287598 170.9900665283203 15.81070518493652 169.4745483398438 C 13.81741046905518 167.9176635742188 12.00164604187012 166.1082458496094 10.41376399993896 164.0967254638672 C 8.78505802154541 162.0333709716797 7.341704845428467 159.6885986328125 6.123939990997314 157.1274871826172 C 4.877175331115723 154.5054321289063 3.826293230056763 151.5716552734375 3.000410795211792 148.4076080322266 C 2.157175540924072 145.1768341064453 1.521646022796631 141.6033630371094 1.111587285995483 137.7864837646484 C -0.4895892441272736 122.8816604614258 1.063351988792419 108.3864822387695 5.727410793304443 94.70360565185547 C 10.24529266357422 81.44960021972656 17.64682197570801 69.04006958007813 27.72635269165039 57.81972122192383 C 35.60794067382813 49.04601287841797 45.11376190185547 41.03007125854492 55.97988128662109 33.99454498291016 C 66.85529327392578 26.95295524597168 79.11540985107422 20.87907218933105 92.41970825195313 15.94166088104248 C 105.8986434936523 10.93942546844482 120.4902954101563 7.089484691619873 135.7891693115234 4.49889612197876 C 151.459228515625 1.845366835594177 167.9578247070313 0.4999550879001617 184.8265228271484 0.4999550879001617 C 192.9604034423828 0.4999550879001617 201.2940063476563 0.8152492046356201 209.5958251953125 1.437131524085999 C 224.8763580322266 2.581778526306152 240.2601165771484 4.775425910949707 255.31982421875 7.95719051361084 C 269.9967041015625 11.05813121795654 284.54345703125 15.13424873352051 298.5560607910156 20.07236671447754 C 312.3135375976563 24.92060279846191 325.6952819824219 30.64813232421875 338.3296508789063 37.09589767456055 C 350.8424682617188 43.48154449462891 362.7312316894531 50.62895584106445 373.665771484375 58.33942413330078 C 384.5978088378906 66.04818725585938 394.6658325195313 74.38313293457031 403.5900573730469 83.11266326904297 C 412.5966491699219 91.92272186279297 420.5168151855469 101.2121887207031 427.1304626464844 110.7228393554688 C 433.8629455566406 120.404426574707 439.3098754882813 130.4148406982422 443.31982421875 140.47607421875 C 447.4320068359375 150.7937164306641 450.0830078125 161.2931976318359 451.1991882324219 171.6828918457031 C 451.9555358886719 178.7233734130859 451.8778686523438 184.7347717285156 450.9683532714844 189.5501861572266 C 450.5269470214844 191.8873596191406 449.8790588378906 194.0044250488281 449.0426330566406 195.8426055908203 C 448.2276611328125 197.6338348388672 447.2071838378906 199.218017578125 446.0095825195313 200.5511322021484 C 442.2802429199219 204.7026062011719 436.6553649902344 206.7207183837891 428.8135375976563 206.7207183837891 Z" stroke="none"/><path d="M 184.8265380859375 0.9999542236328125 C 167.9857177734375 0.9999542236328125 151.5152282714844 2.343017578125 135.8726501464844 4.991836547851563 C 120.6045227050781 7.577255249023438 106.0433654785156 11.41900634765625 92.59365844726563 16.41043090820313 C 79.32363891601563 21.33512878417969 67.09640502929688 27.39248657226563 56.25164794921875 34.41424560546875 C 45.42257690429688 41.42584228515625 35.95046997070313 49.41294860839844 28.09829711914063 58.15383911132813 C 18.06411743164063 69.32371520996094 10.69671630859375 81.67512512207031 6.200714111328125 94.86489868164063 C 1.56036376953125 108.4783020019531 0.015350341796875 122.901252746582 1.6087646484375 137.7330627441406 C 2.01617431640625 141.5254821777344 2.647186279296875 145.0744323730469 3.484222412109375 148.2813110351563 C 4.30218505859375 151.4150085449219 5.34222412109375 154.3190765380859 6.575469970703125 156.9127807617188 C 7.7772216796875 159.4401245117188 9.200653076171875 161.7528991699219 10.80624389648438 163.7868957519531 C 12.36935424804688 165.7671203613281 14.15664672851563 167.5481262207031 16.11846923828125 169.0804748535156 C 19.92929077148438 172.0570068359375 24.42794799804688 174.1844787597656 29.87158203125 175.5844879150391 C 34.959716796875 176.8930053710938 40.74151611328125 177.5291290283203 47.54751586914063 177.5291290283203 C 55.87582397460938 177.5291290283203 65.53292846679688 176.5849609375 77.93911743164063 174.5576629638672 C 89.0389404296875 172.743896484375 100.9805297851563 170.2854309082031 113.623291015625 167.6826629638672 C 145.2520446777344 161.1711883544922 181.100830078125 153.7909545898438 217.4402313232422 153.7909545898438 C 223.7460021972656 153.7909545898438 229.9671173095703 154.0174255371094 235.9308166503906 154.4641418457031 C 279.797607421875 157.7501220703125 324.3148193359375 174.0077819824219 360.0850524902344 187.0710144042969 C 374.1535949707031 192.2088317871094 387.44189453125 197.0616607666016 399.06494140625 200.5564270019531 C 411.9176330566406 204.4208374023438 421.3704833984375 206.2207183837891 428.8134765625 206.2207183837891 C 436.5052490234375 206.2207183837891 442.0084838867188 204.2568969726563 445.6375732421875 200.2169494628906 C 446.8011169433594 198.9217834472656 447.7936401367188 197.38037109375 448.5875244140625 195.6355438232422 C 449.4072875976563 193.8337707519531 450.0430603027344 191.7551879882813 450.47705078125 189.4573669433594 C 451.3774108886719 184.690185546875 451.453125 178.7279663085938 450.7019958496094 171.7362518310547 C 449.5906982421875 161.3917236328125 446.9507141113281 150.9365539550781 442.8553466796875 140.6611328125 C 438.8594665527344 130.63525390625 433.4306945800781 120.6585998535156 426.7199401855469 111.00830078125 C 420.1242370605469 101.5233612060547 412.2245788574219 92.25819396972656 403.2404174804688 83.47007751464844 C 394.3352355957031 74.75912475585938 384.2879333496094 66.44142150878906 373.3775939941406 58.74801635742188 C 362.46240234375 51.05119323730469 350.5940551757813 43.91618347167969 338.1023559570313 37.54124450683594 C 325.4877014160156 31.10354614257813 312.12646484375 25.38484191894531 298.389892578125 20.54396057128906 C 284.397705078125 15.61300659179688 269.8721313476563 11.54283142089844 255.2164764404297 8.446426391601563 C 240.178466796875 5.269256591796875 224.8168792724609 3.078720092773438 209.5584716796875 1.935775756835938 C 201.2688293457031 1.314773559570313 192.9478149414063 0.9999542236328125 184.8265380859375 0.9999542236328125 M 184.8265380859375 -3.0517578125e-05 C 192.9447631835938 -3.0517578125e-05 201.2093811035156 0.3075408935546875 209.6331787109375 0.93853759765625 C 334.1958923339844 10.26925659179688 442.5712890625 86.690185546875 451.6962890625 171.6294250488281 C 454.5244750976563 197.9552001953125 445.6985168457031 207.220703125 428.8134460449219 207.220703125 C 391.2194519042969 207.220703125 313.6749267578125 161.2905731201172 235.8561096191406 155.4613647460938 C 229.7165069580078 155.00146484375 223.5663299560547 154.7909545898438 217.4402313232422 154.7909545898438 C 152.3194580078125 154.7909545898438 88.91836547851563 178.5291442871094 47.54754638671875 178.5291442871094 C 21.32537841796875 178.5291442871094 3.961700439453125 168.9974365234375 0.614471435546875 137.8399047851563 C -7.8934326171875 58.64483642578125 72.90045166015625 -3.0517578125e-05 184.8265380859375 -3.0517578125e-05 Z" stroke="none" fill="#7a7676"/></g></g></g></svg>